
<global>
ampeg_release=0.65
</global>

<group>
group_label=RR1
seq_length=4
seq_position=1

<region>
end=24000
hikey=B2
hivel=127
lokey=A#2
lovel=1
offset=7640
pitch_keycenter=A#2
sample=om28_Muted_MF_A#2_RR1.opus
</region>

<region>
end=18364
hikey=B3
hivel=127
lokey=A#3
lovel=1
offset=2612
pitch_keycenter=A#3
sample=om28_Muted_MF_A#3_RR1.opus
</region>

<region>
end=23889
hikey=B4
hivel=127
lokey=A#4
lovel=1
offset=6417
pitch_keycenter=A#4
sample=om28_Muted_MF_A#4_RR1.opus
</region>

<region>
end=24000
hikey=C#3
hivel=127
lokey=C3
lovel=1
offset=8552
pitch_keycenter=C3
sample=om28_Muted_MF_C3_RR1.opus
</region>

<region>
end=17011
hikey=C#4
hivel=127
lokey=C4
lovel=1
offset=2034
sample=om28_Muted_MF_C4_RR1.opus
</region>

<region>
end=22723
hikey=C#5
hivel=127
lokey=C5
lovel=1
offset=6391
pitch_keycenter=C5
sample=om28_Muted_MF_C5_RR1.opus
</region>

<region>
end=23504
hikey=D#2
hivel=127
lokey=C2
lovel=1
offset=6361
pitch_keycenter=D2
sample=om28_Muted_MF_D2_RR1.opus
</region>

<region>
end=15215
hikey=D#3
hivel=127
lokey=D3
lovel=1
offset=3292
pitch_keycenter=D3
sample=om28_Muted_MF_D3_RR1.opus
</region>

<region>
end=19447
hikey=D#4
hivel=127
lokey=D4
lovel=1
offset=2377
pitch_keycenter=D4
sample=om28_Muted_MF_D4_RR1.opus
</region>

<region>
end=20526
hikey=D#5
hivel=127
lokey=D5
lovel=1
offset=4426
pitch_keycenter=D5
sample=om28_Muted_MF_D5_RR1.opus
</region>

<region>
end=23173
hikey=F2
hivel=127
lokey=E2
lovel=1
offset=7820
pitch_keycenter=E2
sample=om28_Muted_MF_E2_RR1.opus
</region>

<region>
end=24000
hikey=F3
hivel=127
lokey=E3
lovel=1
offset=8684
pitch_keycenter=E3
sample=om28_Muted_MF_E3_RR1.opus
</region>

<region>
end=22730
hikey=F4
hivel=127
lokey=E4
lovel=1
offset=5853
pitch_keycenter=E4
sample=om28_Muted_MF_E4_RR1.opus
</region>

<region>
end=20762
hikey=F5
hivel=127
lokey=E5
lovel=1
offset=3371
pitch_keycenter=E5
sample=om28_Muted_MF_E5_RR1.opus
</region>

<region>
end=24000
hikey=G2
hivel=127
lokey=F#2
lovel=1
offset=9407
pitch_keycenter=F#2
sample=om28_Muted_MF_F#2_RR1.opus
</region>

<region>
end=16647
hikey=G3
hivel=127
lokey=F#3
lovel=1
offset=1002
pitch_keycenter=F#3
sample=om28_Muted_MF_F#3_RR1.opus
</region>

<region>
end=18558
hikey=G4
hivel=127
lokey=F#4
lovel=1
offset=2998
pitch_keycenter=F#4
sample=om28_Muted_MF_F#4_RR1.opus
</region>

<region>
end=21558
hikey=G5
hivel=127
lokey=F#5
lovel=1
offset=6887
pitch_keycenter=F#5
sample=om28_Muted_MF_F#5_RR1.opus
</region>

<region>
end=17129
hikey=A2
hivel=127
lokey=G#2
lovel=1
offset=2196
pitch_keycenter=G#2
sample=om28_Muted_MF_G#2_RR1.opus
</region>

<region>
end=16866
hikey=A3
hivel=127
lokey=G#3
lovel=1
offset=2202
pitch_keycenter=G#3
sample=om28_Muted_MF_G#3_RR1.opus
</region>

<region>
end=23042
hikey=A4
hivel=127
lokey=G#4
lovel=1
offset=7035
pitch_keycenter=G#4
sample=om28_Muted_MF_G#4_RR1.opus
</region>

<region>
end=24000
hikey=C6
hivel=127
lokey=G#5
lovel=1
offset=7386
pitch_keycenter=G#5
sample=om28_Muted_MF_G#5_RR1.opus
</region>
</group>

<group>
group_label=RR2
seq_length=4
seq_position=2

<region>
end=24000
hikey=B2
hivel=127
lokey=A#2
lovel=1
offset=9918
pitch_keycenter=A#2
sample=om28_Muted_MF_A#2_RR2.opus
</region>

<region>
end=16889
hikey=B3
hivel=127
lokey=A#3
lovel=1
offset=2145
pitch_keycenter=A#3
sample=om28_Muted_MF_A#3_RR2.opus
</region>

<region>
end=24000
hikey=B4
hivel=127
lokey=A#4
lovel=1
offset=9007
pitch_keycenter=A#4
sample=om28_Muted_MF_A#4_RR2.opus
</region>

<region>
end=24000
hikey=C#3
hivel=127
lokey=C3
lovel=1
offset=9697
pitch_keycenter=C3
sample=om28_Muted_MF_C3_RR2.opus
</region>

<region>
end=23131
hikey=C#4
hivel=127
lokey=C4
lovel=1
offset=8979
sample=om28_Muted_MF_C4_RR2.opus
</region>

<region>
end=22708
hikey=C#5
hivel=127
lokey=C5
lovel=1
offset=8256
pitch_keycenter=C5
sample=om28_Muted_MF_C5_RR2.opus
</region>

<region>
end=24000
hikey=D#2
hivel=127
lokey=C2
lovel=1
offset=8883
pitch_keycenter=D2
sample=om28_Muted_MF_D2_RR2.opus
</region>

<region>
end=24000
hikey=D#3
hivel=127
lokey=D3
lovel=1
offset=10556
pitch_keycenter=D3
sample=om28_Muted_MF_D3_RR2.opus
</region>

<region>
end=16704
hikey=D#4
hivel=127
lokey=D4
lovel=1
offset=2825
pitch_keycenter=D4
sample=om28_Muted_MF_D4_RR2.opus
</region>

<region>
end=20758
hikey=D#5
hivel=127
lokey=D5
lovel=1
offset=5818
pitch_keycenter=D5
sample=om28_Muted_MF_D5_RR2.opus
</region>

<region>
end=24000
hikey=F2
hivel=127
lokey=E2
lovel=1
offset=9311
pitch_keycenter=E2
sample=om28_Muted_MF_E2_RR2.opus
</region>

<region>
end=24000
hikey=F3
hivel=127
lokey=E3
lovel=1
offset=9527
pitch_keycenter=E3
sample=om28_Muted_MF_E3_RR2.opus
</region>

<region>
end=24000
hikey=F4
hivel=127
lokey=E4
lovel=1
offset=10731
pitch_keycenter=E4
sample=om28_Muted_MF_E4_RR2.opus
</region>

<region>
end=24000
hikey=F5
hivel=127
lokey=E5
lovel=1
offset=8343
pitch_keycenter=E5
sample=om28_Muted_MF_E5_RR2.opus
</region>

<region>
end=21891
hikey=G2
hivel=127
lokey=F#2
lovel=1
offset=6989
pitch_keycenter=F#2
sample=om28_Muted_MF_F#2_RR2.opus
</region>

<region>
end=24000
hikey=G3
hivel=127
lokey=F#3
lovel=1
offset=11451
pitch_keycenter=F#3
sample=om28_Muted_MF_F#3_RR2.opus
</region>

<region>
end=24000
hikey=G4
hivel=127
lokey=F#4
lovel=1
offset=10292
pitch_keycenter=F#4
sample=om28_Muted_MF_F#4_RR2.opus
</region>

<region>
end=24000
hikey=G5
hivel=127
lokey=F#5
lovel=1
offset=9908
pitch_keycenter=F#5
sample=om28_Muted_MF_F#5_RR2.opus
</region>

<region>
end=24000
hikey=A2
hivel=127
lokey=G#2
lovel=1
offset=10684
pitch_keycenter=G#2
sample=om28_Muted_MF_G#2_RR2.opus
</region>

<region>
end=24000
hikey=A3
hivel=127
lokey=G#3
lovel=1
offset=9582
pitch_keycenter=G#3
sample=om28_Muted_MF_G#3_RR2.opus
</region>

<region>
end=24000
hikey=A4
hivel=127
lokey=G#4
lovel=1
offset=10490
pitch_keycenter=G#4
sample=om28_Muted_MF_G#4_RR2.opus
</region>

<region>
end=24000
hikey=C6
hivel=127
lokey=G#5
lovel=1
offset=9949
pitch_keycenter=G#5
sample=om28_Muted_MF_G#5_RR2.opus
</region>
</group>

<group>
group_label=RR3
seq_length=4
seq_position=3

<region>
end=24000
hikey=B2
hivel=127
lokey=A#2
lovel=1
offset=9225
pitch_keycenter=A#2
sample=om28_Muted_MF_A#2_RR3.opus
</region>

<region>
end=16576
hikey=B3
hivel=127
lokey=A#3
lovel=1
offset=2374
pitch_keycenter=A#3
sample=om28_Muted_MF_A#3_RR3.opus
</region>

<region>
end=24000
hikey=B4
hivel=127
lokey=A#4
lovel=1
offset=9207
pitch_keycenter=A#4
sample=om28_Muted_MF_A#4_RR3.opus
</region>

<region>
end=24000
hikey=C#3
hivel=127
lokey=C3
lovel=1
offset=10703
pitch_keycenter=C3
sample=om28_Muted_MF_C3_RR3.opus
</region>

<region>
end=17824
hikey=C#4
hivel=127
lokey=C4
lovel=1
offset=4278
sample=om28_Muted_MF_C4_RR3.opus
</region>

<region>
end=22606
hikey=C#5
hivel=127
lokey=C5
lovel=1
offset=8145
pitch_keycenter=C5
sample=om28_Muted_MF_C5_RR3.opus
</region>

<region>
end=24000
hikey=D#2
hivel=127
lokey=C2
lovel=1
offset=9583
pitch_keycenter=D2
sample=om28_Muted_MF_D2_RR3.opus
</region>

<region>
end=24000
hikey=D#3
hivel=127
lokey=D3
lovel=1
offset=10937
pitch_keycenter=D3
sample=om28_Muted_MF_D3_RR3.opus
</region>

<region>
end=24000
hikey=D#4
hivel=127
lokey=D4
lovel=1
offset=8772
pitch_keycenter=D4
sample=om28_Muted_MF_D4_RR3.opus
</region>

<region>
end=24000
hikey=D#5
hivel=127
lokey=D5
lovel=1
offset=9242
pitch_keycenter=D5
sample=om28_Muted_MF_D5_RR3.opus
</region>

<region>
end=24000
hikey=F2
hivel=127
lokey=E2
lovel=1
offset=10444
pitch_keycenter=E2
sample=om28_Muted_MF_E2_RR3.opus
</region>

<region>
end=24000
hikey=F3
hivel=127
lokey=E3
lovel=1
offset=9171
pitch_keycenter=E3
sample=om28_Muted_MF_E3_RR3.opus
</region>

<region>
end=16996
hikey=F4
hivel=127
lokey=E4
lovel=1
offset=24999
pitch_keycenter=E4
sample=om28_Muted_MF_E4_RR3.opus
</region>

<region>
end=24000
hikey=F5
hivel=127
lokey=E5
lovel=1
offset=8171
pitch_keycenter=E5
sample=om28_Muted_MF_E5_RR3.opus
</region>

<region>
end=24000
hikey=G2
hivel=127
lokey=F#2
lovel=1
offset=8900
pitch_keycenter=F#2
sample=om28_Muted_MF_F#2_RR3.opus
</region>

<region>
end=24000
hikey=G3
hivel=127
lokey=F#3
lovel=1
offset=10283
pitch_keycenter=F#3
sample=om28_Muted_MF_F#3_RR3.opus
</region>

<region>
end=24000
hikey=G4
hivel=127
lokey=F#4
lovel=1
offset=8784
pitch_keycenter=F#4
sample=om28_Muted_MF_F#4_RR3.opus
</region>

<region>
end=24000
hikey=G5
hivel=127
lokey=F#5
lovel=1
offset=8085
pitch_keycenter=F#5
sample=om28_Muted_MF_F#5_RR3.opus
</region>

<region>
end=24000
hikey=A2
hivel=127
lokey=G#2
lovel=1
offset=9631
pitch_keycenter=G#2
sample=om28_Muted_MF_G#2_RR3.opus
</region>

<region>
end=24000
hikey=A3
hivel=127
lokey=G#3
lovel=1
offset=9403
pitch_keycenter=G#3
sample=om28_Muted_MF_G#3_RR3.opus
</region>

<region>
end=18994
hikey=A4
hivel=127
lokey=G#4
lovel=1
offset=5749
pitch_keycenter=G#4
sample=om28_Muted_MF_G#4_RR3.opus
</region>

<region>
end=24000
hikey=C6
hivel=127
lokey=G#5
lovel=1
offset=9751
pitch_keycenter=G#5
sample=om28_Muted_MF_G#5_RR3.opus
</region>
</group>

<group>
group_label=RR4
seq_length=4
seq_position=4

<region>
end=36000
hikey=B2
hivel=127
lokey=A#2
lovel=1
offset=8930
pitch_keycenter=A#2
sample=om28_Muted_MF_A#2_RR4.opus
</region>

<region>
end=32084
hikey=B3
hivel=127
lokey=A#3
lovel=1
offset=3786
pitch_keycenter=A#3
sample=om28_Muted_MF_A#3_RR4.opus
</region>

<region>
end=36000
hikey=B4
hivel=127
lokey=A#4
lovel=1
offset=7982
pitch_keycenter=A#4
sample=om28_Muted_MF_A#4_RR4.opus
</region>

<region>
end=36000
hikey=C#3
hivel=127
lokey=C3
lovel=1
offset=8357
pitch_keycenter=C3
sample=om28_Muted_MF_C3_RR4.opus
</region>

<region>
end=36000
hikey=C#4
hivel=127
lokey=C4
lovel=1
offset=9137
sample=om28_Muted_MF_C4_RR4.opus
</region>

<region>
end=36000
hikey=C#5
hivel=127
lokey=C5
lovel=1
offset=9655
pitch_keycenter=C5
sample=om28_Muted_MF_C5_RR4.opus
</region>

<region>
end=36000
hikey=D#2
hivel=127
lokey=C2
lovel=1
offset=8960
pitch_keycenter=D2
sample=om28_Muted_MF_D2_RR4.opus
</region>

<region>
end=36000
hikey=D#3
hivel=127
lokey=D3
lovel=1
offset=9345
pitch_keycenter=D3
sample=om28_Muted_MF_D3_RR4.opus
</region>

<region>
end=29643
hikey=D#4
hivel=127
lokey=D4
lovel=1
offset=4174
pitch_keycenter=D4
sample=om28_Muted_MF_D4_RR4.opus
</region>

<region>
end=36000
hikey=D#5
hivel=127
lokey=D5
lovel=1
offset=9537
pitch_keycenter=D5
sample=om28_Muted_MF_D5_RR4.opus
</region>

<region>
end=36000
hikey=F2
hivel=127
lokey=E2
lovel=1
offset=9045
pitch_keycenter=E2
sample=om28_Muted_MF_E2_RR4.opus
</region>

<region>
end=36000
hikey=F3
hivel=127
lokey=E3
lovel=1
offset=9479
pitch_keycenter=E3
sample=om28_Muted_MF_E3_RR4.opus
</region>

<region>
end=36000
hikey=F4
hivel=127
lokey=E4
lovel=1
offset=8003
pitch_keycenter=E4
sample=om28_Muted_MF_E4_RR4.opus
</region>

<region>
end=36000
hikey=F5
hivel=127
lokey=E5
lovel=1
offset=7886
pitch_keycenter=E5
sample=om28_Muted_MF_E5_RR4.opus
</region>

<region>
end=36000
hikey=G2
hivel=127
lokey=F#2
lovel=1
offset=7825
pitch_keycenter=F#2
sample=om28_Muted_MF_F#2_RR4.opus
</region>

<region>
end=36000
hikey=G3
hivel=127
lokey=F#3
lovel=1
offset=10039
pitch_keycenter=F#3
sample=om28_Muted_MF_F#3_RR4.opus
</region>

<region>
end=36000
hikey=G4
hivel=127
lokey=F#4
lovel=1
offset=9039
pitch_keycenter=F#4
sample=om28_Muted_MF_F#4_RR4.opus
</region>

<region>
end=36000
hikey=G5
hivel=127
lokey=F#5
lovel=1
offset=9973
pitch_keycenter=F#5
sample=om28_Muted_MF_F#5_RR4.opus
</region>

<region>
end=36000
hikey=A2
hivel=127
lokey=G#2
lovel=1
offset=9927
pitch_keycenter=G#2
sample=om28_Muted_MF_G#2_RR4.opus
</region>

<region>
end=36000
hikey=A3
hivel=127
lokey=G#3
lovel=1
offset=9929
pitch_keycenter=G#3
sample=om28_Muted_MF_G#3_RR4.opus
</region>

<region>
end=36000
hikey=A4
hivel=127
lokey=G#4
lovel=1
offset=8991
pitch_keycenter=G#4
sample=om28_Muted_MF_G#4_RR4.opus
</region>

<region>
end=36000
hikey=C6
hivel=127
lokey=G#5
lovel=1
offset=9115
pitch_keycenter=G#5
sample=om28_Muted_MF_G#5_RR4.opus
</region>
</group>